<?xml version="1.0"?>
<svg xmlns="http://www.w3.org/2000/svg" viewBox="0 0 700 100" width="700" height="100"><rect width="700" height="100" fill="#0A0B0E"></rect><defs></defs><rect x="20" y="0" width="10" height="10" fill="#1E5FFF"></rect><rect x="30" y="0" width="10" height="10" fill="#1E5FFF"></rect><rect x="40" y="0" width="10" height="10" fill="#1E5FFF"></rect><rect x="50" y="0" width="10" height="10" fill="#1E5FFF"></rect><rect x="60" y="0" width="10" height="10" fill="#1E5FFF"></rect><rect x="10" y="10" width="10" height="10" fill="#1E5FFF"></rect><rect x="60" y="10" width="10" height="10" fill="#1E5FFF"></rect><rect x="10" y="20" width="10" height="10" fill="#1E5FFF"></rect><rect x="30" y="20" width="10" height="10" fill="#1E5FFF"></rect><rect x="40" y="20" width="10" height="10" fill="#1E5FFF"></rect><rect x="50" y="20" width="10" height="10" fill="#1E5FFF"></rect><rect x="60" y="20" width="10" height="10" fill="#1E5FFF"></rect><rect x="10" y="30" width="10" height="10" fill="#1E5FFF"></rect><rect x="30" y="30" width="10" height="10" fill="#1E5FFF"></rect><rect x="60" y="30" width="10" height="10" fill="#1E5FFF"></rect><rect x="10" y="40" width="10" height="10" fill="#1E5FFF"></rect><rect x="30" y="40" width="10" height="10" fill="#1E5FFF"></rect><rect x="60" y="40" width="10" height="10" fill="#1E5FFF"></rect><rect x="10" y="50" width="10" height="10" fill="#1E5FFF"></rect><rect x="30" y="50" width="10" height="10" fill="#1E5FFF"></rect><rect x="40" y="50" width="10" height="10" fill="#1E5FFF"></rect><rect x="50" y="50" width="10" height="10" fill="#1E5FFF"></rect><rect x="60" y="50" width="10" height="10" fill="#1E5FFF"></rect><rect x="10" y="60" width="10" height="10" fill="#1E5FFF"></rect><rect x="20" y="70" width="10" height="10" fill="#1E5FFF"></rect><rect x="30" y="70" width="10" height="10" fill="#1E5FFF"></rect><rect x="40" y="70" width="10" height="10" fill="#1E5FFF"></rect><rect x="50" y="70" width="10" height="10" fill="#1E5FFF"></rect><rect x="60" y="70" width="10" height="10" fill="#1E5FFF"></rect><text x="104" y="74" class="w">ecomdukan</text></svg>