<?xml version="1.0"?>
<svg xmlns="http://www.w3.org/2000/svg" viewBox="0 0 8 8" shape-rendering="crispEdges" width="512" height="512"><rect x="2" y="0" width="1" height="1" fill="#F4F0E8"></rect><rect x="3" y="0" width="1" height="1" fill="#F4F0E8"></rect><rect x="4" y="0" width="1" height="1" fill="#F4F0E8"></rect><rect x="5" y="0" width="1" height="1" fill="#F4F0E8"></rect><rect x="6" y="0" width="1" height="1" fill="#F4F0E8"></rect><rect x="1" y="1" width="1" height="1" fill="#F4F0E8"></rect><rect x="6" y="1" width="1" height="1" fill="#F4F0E8"></rect><rect x="1" y="2" width="1" height="1" fill="#F4F0E8"></rect><rect x="3" y="2" width="1" height="1" fill="#F4F0E8"></rect><rect x="4" y="2" width="1" height="1" fill="#F4F0E8"></rect><rect x="5" y="2" width="1" height="1" fill="#F4F0E8"></rect><rect x="6" y="2" width="1" height="1" fill="#F4F0E8"></rect><rect x="1" y="3" width="1" height="1" fill="#F4F0E8"></rect><rect x="3" y="3" width="1" height="1" fill="#F4F0E8"></rect><rect x="6" y="3" width="1" height="1" fill="#F4F0E8"></rect><rect x="1" y="4" width="1" height="1" fill="#F4F0E8"></rect><rect x="3" y="4" width="1" height="1" fill="#F4F0E8"></rect><rect x="6" y="4" width="1" height="1" fill="#F4F0E8"></rect><rect x="1" y="5" width="1" height="1" fill="#F4F0E8"></rect><rect x="3" y="5" width="1" height="1" fill="#F4F0E8"></rect><rect x="4" y="5" width="1" height="1" fill="#F4F0E8"></rect><rect x="5" y="5" width="1" height="1" fill="#F4F0E8"></rect><rect x="6" y="5" width="1" height="1" fill="#F4F0E8"></rect><rect x="1" y="6" width="1" height="1" fill="#F4F0E8"></rect><rect x="2" y="7" width="1" height="1" fill="#F4F0E8"></rect><rect x="3" y="7" width="1" height="1" fill="#F4F0E8"></rect><rect x="4" y="7" width="1" height="1" fill="#F4F0E8"></rect><rect x="5" y="7" width="1" height="1" fill="#F4F0E8"></rect><rect x="6" y="7" width="1" height="1" fill="#F4F0E8"></rect></svg>